<?xml version="1.0" encoding="UTF-8" standalone="no"?>
<!-- Uploaded to: SVG Repo, www.svgrepo.com, Generator: SVG Repo Mixer Tools -->

<svg
   width="666.66663"
   height="666.66663"
   viewBox="0 0 19.999999 19.999999"
   fill="none"
   version="1.1"
   id="svg1"
   sodipodi:docname="maximize-window.svg"
   xmlns:inkscape="http://www.inkscape.org/namespaces/inkscape"
   xmlns:sodipodi="http://sodipodi.sourceforge.net/DTD/sodipodi-0.dtd"
   xmlns="http://www.w3.org/2000/svg"
   xmlns:svg="http://www.w3.org/2000/svg">
  <defs
     id="defs1" />
  <sodipodi:namedview
     id="namedview1"
     pagecolor="#ffffff"
     bordercolor="#000000"
     borderopacity="0.25"
     inkscape:showpageshadow="2"
     inkscape:pageopacity="0.0"
     inkscape:pagecheckerboard="0"
     inkscape:deskcolor="#d1d1d1" />
  <path
     fill-rule="evenodd"
     clip-rule="evenodd"
     d="M 20,3.0000001 C 20,1.3431501 18.6569,1.1920929e-7 17,1.1920929e-7 H 3.0000001 C 1.3431501,1.1920929e-7 1.1920929e-7,1.3431501 1.1920929e-7,3.0000001 V 17 C 1.1920929e-7,18.6569 1.3431501,20 3.0000001,20 H 17 c 1.6569,0 3,-1.3431 3,-3 z m -2,0 c 0,-0.55228 -0.4477,-1 -1,-1 H 3.0000001 c -0.55228,0 -1,0.44772 -1,1 V 17 c 0,0.5523 0.44772,1 1,1 H 17 c 0.5523,0 1,-0.4477 1,-1 z"
     fill="#0f0f0f"
     id="path1" />
</svg>
